<svg xmlns="http://www.w3.org/2000/svg" width="158" height="70" fill="none" viewBox="0 0 158 70"><path fill="#3c322d" d="M93.768 34.994c0 .57-.018 1.14 0 1.712.197 5.802-1.633 11.03-4.57 15.96a72 72 0 0 0-2.775 5.061c-.7 1.42-1.673 2.415-3.185 2.997-.845.324-1.629.886-2.337 1.464-3.26 2.665-6.957 4.573-10.913 5.918-2.627.892-5.332 1.677-8.187 1.642-.85-.01-1.703.25-2.556.252-.853.003-1.704-.271-2.549-.235-3.68.156-7.09-.965-10.475-2.142-3.695-1.283-6.957-3.31-10.026-5.726-4.33-3.407-7.417-7.699-9.686-12.612-1.222-2.648-2.218-5.381-2.499-8.32-.047-.488-.21-.97-.355-1.443-1.03-3.297-.437-6.53.2-9.814.487-2.512.988-4.994 1.937-7.379 2.507-6.308 6.49-11.474 12.004-15.531 4.598-3.38 9.744-5.456 15.34-6.349 6.42-1.024 12.687-.287 18.769 2.106 3.034 1.198 5.897 2.715 8.398 4.724 2.332 1.873 4.436 4.065 6.423 6.305 1.802 2.03 3.08 4.449 4.222 6.916 1.783 3.855 2.946 7.845 2.828 12.132-.026.792-.007 1.577-.008 2.362m-2.465-7.81c-.178-1.347-.288-2.908-.621-4.422-.948-4.359-3.497-7.76-6.894-10.539-1.93-1.58-4.032-2.952-6.105-4.348-.702-.473-1.517-.907-2.337-1.053-2.107-.384-4.238-.743-6.374-.85-3.707-.188-7.037-1.135-9.835-3.686-2.06-1.877-4.303-2.059-6.444-.407-2.427 1.871-5.19 2.97-8.004 4.057-2.063.797-4.05 1.8-6.034 2.792-1.657.83-2.623 2.125-2.6 4.085.014 1.1-.495 2.018-1.524 2.627a23 23 0 0 0-2.468 1.69c-2.194 1.71-3.903 3.636-4.272 6.623-.292 2.363-1.015 4.7-2.65 6.645a4.43 4.43 0 0 0-.976 2.338c-.151 1.766-.09 3.554-.045 5.33.012.476.22.986.467 1.405q.848 1.484 1.843 2.876c1.606 2.21 3.003 4.475 3.326 7.283.312 2.72 1.64 4.937 3.885 6.629 3.253 2.451 6.389 5.054 9.69 7.441 1.775 1.287 3.674 2.412 6.015 2.672 2.34.261 4.635.892 6.733 2.059.44.235.923.381 1.42.43 2.96.317 5.701-.409 8.301-1.78.816-.43 1.655-.82 2.499-1.195 2.032-.9 4.284-1.491 6.054-2.745 1.97-1.398 4.075-2.018 6.335-2.409.976-.17 1.774-.568 2.41-1.286.758-.853 1.46-1.755 2.25-2.58.818-.85 1.408-1.754 1.55-2.966.22-1.858 1.023-3.498 2.041-5.074 1.725-2.662 2.706-5.604 3.216-8.732.134-.82.21-1.515-.2-2.237-1.188-2.084-.704-4.45-1.079-6.669-.19-1.2.248-2.511.431-4.006Zm-14.29-20.82c-.5-.548-.66-.796-.887-.95-.41-.28-.857-.51-1.293-.753-3.726-2.078-7.808-3.088-11.978-3.813C62.018.7 61.137.767 60.282.799c-.222.008-.488.222-.629.415-.065.088.081.395.204.542a8 8 0 0 0 3.501 2.389 23.6 23.6 0 0 0 7.33 1.363c1.06.028 2.117.226 3.172.368.9.127 1.799.279 3.153.488m-31.66 59.883c-2.501-2.023-4.694-3.832-6.925-5.592-1.847-1.457-3.734-2.864-5.622-4.27-.213-.157-.547-.153-1.011-.271 2.275 3.78 9.872 9.523 13.558 10.133M28.501 19.029c1.509-1.14 2.904-2.341 4.437-3.335 2.148-1.385 2.97-3.108 2.462-6.065-1.524 1.234-2.611 2.72-3.787 4.071-1.242 1.424-2.163 3.12-3.199 4.715-.08.129.05.383.087.614M79.373 62.17c-1.407-.095-2.825.15-3.707.902-1.675 1.426-3.668 2.143-5.696 2.856-1.064.374-2.068.924-3.07 1.447-.139.072-.165.458-.136.685.01.076.385.202.54.15 1.82-.614 3.7-1.11 5.425-1.93 2.114-1.004 4.099-2.276 6.122-3.455.212-.118.324-.396.522-.655M25.614 42.397c-.404 1.18-.325 1.834-.07 2.53.705 1.93 1.134 3.968 2.405 5.654.472.626.568 2.025 1.438 1.723.765-.263-.13-1.37-.183-2.117-.2-2.853-1.716-5.152-3.59-7.79M39.263 6.872l.189.282c1.051-.386 2.113-.751 3.153-1.164a490 490 0 0 0 6.764-2.744c.454-.19.87-.493 1.256-.8.108-.088.089-.383.055-.566-.017-.081-.231-.17-.355-.175a2.2 2.2 0 0 0-.621.102c-3.055.859-5.937 2.13-8.695 3.674-.645.361-1.168.923-1.746 1.391M92.929 37.51c.185-.213.33-.301.34-.401.297-3.108-.035-6.189-.466-9.26-.021-.155-.237-.376-.385-.395-.162-.02-.415.113-.514.257a1.64 1.64 0 0 0-.293.77 29.2 29.2 0 0 0 .502 7.568c.098.502.519.945.816 1.46m-68.053-8.577c1.192-.45 1.37-1.265 1.499-2 .311-1.795 1.09-3.522.833-5.419-1.247 2.264-2.352 4.558-2.331 7.42m28.86 39.392c-2.672-1.17-3.397-1.294-5.777-.965 1.009.378 1.917.979 2.83.989.952.014 1.983 1.167 2.949-.024"/><path fill="#3c322d" d="M59.25 45.048c-1.828-.032-3.084-.79-4.014-2.253-.866-1.364-2.307-2.072-3.626-2.913-1.663-1.059-3.017-2.254-3.4-4.401-.267-1.456.043-2.72.64-3.87.501-.96 1.395-1.853 2.335-2.424 1.019-.62 1.863-1.204 2.334-2.349.532-1.316 1.874-1.396 3.062-1.633 1.118-.222 2.256-.365 3.359-.644 1.508-.381 2.877-.264 3.98.899.851.902 1.846 1.549 2.955 2.096 1.153.569 1.534 1.233 1.173 2.421-.246.807-.008 1.356.295 2 .332.702.673 1.415.902 2.157.76 2.467-.115 4.544-2.454 5.643-1.45.68-2.56 1.588-2.92 3.184-.145.644-.55 1.008-1.124 1.175-1.157.335-2.33.612-3.498.912m7.673-10.345c.037-4.347-3.292-7.822-7.621-7.828-3.885 0-7.792 2.602-7.944 7.588-.121 3.99 3.237 7.708 7.615 7.722 5.331.026 7.846-3.638 7.95-7.482M51.316 38.86c0-.557.054-.842-.008-1.1-.575-2.36-.948-4.7.355-6.974.094-.163-.123-.5-.196-.756-.255.082-.564.098-.757.255-2.152 1.748-3.112 5.945.606 8.575m7.99-13.074c.9.326 1.415.558 1.952.702 1.983.52 3.675 1.453 4.853 3.174.232.34.532.843.976.457.236-.207.313-.837.177-1.152-.183-.418-.6-.94-1.001-1.023-1.09-.225-1.686-1.006-2.396-1.687-1.194-1.135-2.528-1.491-4.56-.471m-.122 17.11-.027-.164c-.571 0-1.148-.048-1.71.02-.29.036-.552.279-.827.428.25.218.467.562.755.633 1.536.384 3.086.466 4.601-.12.26-.102.547-.233.71-.44.144-.175.19-.486.161-.722-.011-.088-.37-.22-.547-.193-1.04.162-2.077.365-3.112.556Zm7.86-4.458c1.064-.196 1.54-.79 1.602-1.703q.069-1.157-.034-2.31c-.017-.203-.303-.384-.465-.575-.237.222-.718.52-.674.653.432 1.333-.472 2.527-.43 3.932ZM76.783 44.456c-.061.03-.308.235-.575.263-.243.028-.598-.053-.749-.221a38 38 0 0 1-2.169-2.622c-.177-.238-.25-.878-.149-.933.333-.181.983-.371 1.128-.214.856.934 1.61 1.962 2.383 2.97.076.1.053.273.13.757M40.535 51.775c.396.031 1.178.055 1.94.184.19.032.444.4.444.62 0 .219-.22.598-.41.644-1.481.365-2.956.454-4.267-.526a.66.66 0 0 1-.209-.54c.029-.146.258-.35.413-.361.569-.048 1.139-.021 2.09-.021"/><path fill="#3c322d" d="m86.968 20.917.56.304c-.158.282-.256.734-.488.816a23 23 0 0 1-3.275.925c-.32.062-.785-.25-1.08-.506-.34-.298-.138-.944.292-1.009 1.262-.192 2.534-.34 3.99-.53M49.25 58.058c.594.273 1.09.35 1.332.643a23 23 0 0 1 1.816 2.568c.266.426.023.887-.425 1.01-.246.068-.691-.13-.872-.351a28 28 0 0 1-2.007-2.707c-.142-.224.078-.673.157-1.163M72.506 24.102c.037-.25 0-.535.118-.644.16-.144.502-.264.666-.186.225.107.37.398.525.627.43.637.854 1.278 1.263 1.93.183.293.429.604.444.92.018.29-.162.669-.383.869-.124.112-.632.04-.757-.116-.82-1.031-1.803-1.996-1.876-3.4M75.057 13.147c-.177 1.053-.248 1.828-.455 2.57-.13.401-.377.755-.71 1.017-.235.188-.645.16-.976.23-.027-.307-.123-.626-.067-.917.173-.897.404-1.783.612-2.673.016-.069.011-.143.032-.21.163-.537.516-.946 1.081-.724.285.112.418.604.483.707M59.759 19.995c.498.061 1.144.095 1.76.242.21.05.52.425.484.586-.064.29-.307.669-.564.755a2.15 2.15 0 0 1-1.25.006c-.709-.224-1.37-.298-2.078-.005-.465.193-.901-.01-1.025-.468-.166-.614.3-.912.825-.998.559-.093 1.136-.078 1.848-.118M70.826 50.247c-.202.871-.355 1.636-.573 2.382-.042.147-.355.344-.486.311-.236-.057-.568-.241-.616-.433a2.85 2.85 0 0 1-.035-1.263c.167-.764.33-1.491.018-2.273-.15-.374-.107-.972.468-.97.31 0 .755.379.894.692.227.501.242 1.09.33 1.554"/><path fill="#3c322d" d="M62.095 50.023c-.115.205-.171.446-.323.55-.934.637-1.87 1.276-2.853 1.834-.252.142-.692.054-1.013-.04-.47-.138-.567-.749-.177-.996a78 78 0 0 1 3.265-1.987c.177-.1.532.008.761.12.155.078.222.327.34.52M50.191 9.09c.152.087.438.165.476.303.37 1.352.728 2.71 1.023 4.078.082.38-.427.591-.767.364-1.073-.714-1.741-3.36-1.116-4.466.065-.11.223-.165.384-.28"/><path fill="#3c322d" d="M63.447 12.93c-.323-.213-.672-.322-.719-.506-.05-.2.117-.541.298-.702q1.181-1.044 2.466-1.962c.289-.2.888-.343 1.11-.186.523.364.248.878-.117 1.253-.49.506-.976 1.04-1.54 1.449-.433.308-.988.44-1.498.655M43.05 20.075l-.784.733c-.224-.24-.556-.438-.65-.724a52 52 0 0 1-.99-3.402c-.041-.157.089-.479.222-.533C41.065 16.061 41.423 16.026 41.588 16.15c.325.237.697.555.803.913.28.93.427 1.902.659 3.012"/><path fill="#3c322d" d="M34.463 38.843c-.72 1.305-1.266 2.641-2.606 3.353-.225.12-.724-.033-.965-.224-.41-.322 0-.59.2-.864.628-.856 1.21-1.75 1.878-2.574.172-.211.61-.315.906-.286.203.018.368.358.587.595M42.591 38.954c.375.215.648.279.698.42.084.232.127.596 0 .757-.206.256-.558.403-.861.575-.787.447-1.563.918-2.382 1.299-.249.116-.7.08-.922-.076-.457-.322-.297-.838.07-1.065 1.124-.696 2.305-1.305 3.397-1.91M83.27 33.045c-.289.645-.695 1.618-1.177 2.553-.075.145-.541.224-.739.137-.184-.081-.384-.447-.347-.645.194-1.04.407-2.084.733-3.088.1-.306.548-.584.893-.687.128-.037.463.44.621.73.091.165.016.417.016 1"/><path fill="#3c322d" d="M34.238 25.292c1.273 1.13 1.121 2.664 1.262 4.082.027.263-.304.64-.569.83-.138.1-.7-.06-.714-.153a81 81 0 0 1-.478-4.311c-.01-.123.29-.273.498-.448M63.99 60.288q.321.084.63.204c.764.35 1.533.692 2.28 1.078.354.182.71.41.965.702.294.338-.042.986-.453.898-1.387-.297-2.743-.711-3.781-1.738-.154-.151-.15-.532-.1-.783.029-.142.297-.24.46-.361M47.103 25.705c.073.227.325.58.237.8-.466 1.172-1.006 2.317-1.555 3.453-.067.14-.355.263-.525.24-.15-.018-.355-.225-.394-.382-.291-1.266.627-3.533 1.65-4.103.105-.06.274-.008.587-.008M86.782 44.93c-.16-.1-.492-.222-.665-.459-.07-.093.154-.522.347-.658a32 32 0 0 1 2.633-1.726c.245-.142.754-.152.934.006.166.148.191.702.041.906-.761 1.05-1.721 1.85-3.29 1.93M81.51 53.966c-.658-.068-.945-.075-1.219-.135-.116-.026-.29-.162-.291-.25a.93.93 0 0 1 .15-.566c.141-.159.326-.273.532-.33 1.015-.301 2.031-.604 3.061-.849.224-.053.695.093.724.22.068.3-.013.662-.132.965-.063.16-.314.293-.506.35-.882.24-1.768.454-2.319.595M50.947 46.713c-.073.307-.191.985-.42 1.625-.056.158-.5.311-.704.253s-.443-.39-.437-.598c.021-1.184.08-2.37.202-3.548.026-.257.355-.483.545-.724.227.238.595.448.653.72.128.611.101 1.254.16 2.272"/><path fill="#3c322d" d="M98.513 9.674q0-3.762 1.839-5.704 1.86-1.964 4.765-1.964t4.618 1.695q1.735 1.695 1.735 5.415t-1.839 5.622q-1.839 1.9-4.911 1.9-2.654 0-4.347-1.508-.878-.785-1.379-2.17-.48-1.405-.48-3.286m6.541-7.46q-2.11 0-3.469 1.86-1.337 1.86-1.337 5.455 0 3.597 1.275 5.25t3.385 1.653q2.131 0 3.469-1.86 1.358-1.88 1.358-5.435 0-3.576-1.295-5.25-1.275-1.674-3.386-1.674M115.084 16.556h-1.734V2.09h1.734v6.655h6.792V2.089h1.735v14.467h-1.735V8.95h-6.792ZM132.527 16.556h-.272l1.818-14.467h.69l4.388 13.372 4.368-13.372h.69l1.818 14.467h-1.735L142.85 4.983l-3.782 11.573h-1.317l-3.824-11.429ZM157.603 2.09q.397.39.397 1.012 0 .517-.23 1.054l-3.741 7.502v4.898h-1.734v-4.444l-4.18-10.023h1.777l3.991 9.321 3.636-7.254q.23-.517.23-1.075t-.313-.868ZM2.946 20.358a71 71 0 0 1 3.167-.073q1.584 0 3.314.327 1.768.329 3.462 1.239a9 9 0 0 1 2.91 2.294q1.215 1.385 1.951 3.678.737 2.295.737 5.573t-1.105 5.9q-1.068 2.586-2.946 3.97-3.646 2.695-8.802 2.695a52 52 0 0 1-3.793-.146H0V20.358Zm.11 25.165q.774.074 1.952.073 1.179 0 1.768-.036.59-.037 1.62-.291a9.5 9.5 0 0 0 1.915-.765q.884-.474 1.842-1.384a9 9 0 0 0 1.694-2.222q1.583-2.986 1.583-7.794 0-3.423-.847-5.9-.847-2.512-1.952-3.714a7.6 7.6 0 0 0-2.615-1.894q-1.545-.729-2.467-.838a18 18 0 0 0-2.136-.11q-1.215 0-2.356.11ZM99.111 45.815h-.479V20.32h1.252l15.32 23.564V20.32h.479v25.494h-2.688L99.111 24.69ZM138.359 20.321h.479v14.568q0 5.718-2.283 8.413-2.283 2.658-5.966 2.659-2.32 0-3.94-.401-1.62-.436-3.057-1.566-2.946-2.258-2.946-9.105V20.321h3.057v14.531q0 6.63 2.025 8.85 1.03 1.093 2.136 1.494 1.141.4 2.725.4 3.536 0 5.634-2.549 2.136-2.586 2.136-8.194ZM151.401 45.815h-3.057v-25.13h-6.371v-.364h15.836v.364h-6.408Z"/></svg>