<svg xmlns="http://www.w3.org/2000/svg" width="135" height="25" fill="none" viewBox="0 0 135 25"><path fill="#edd501" d="M11.132 3.657C11.432 2.735 12.735 2.735 13.034 3.656l1.491 4.587a1 1 0 0 0 .951.691h4.823c.97 0 1.372 1.24.588 1.809l-3.902 2.835a1 1 0 0 0-.363 1.118l1.49 4.588c.3.92-.755 1.687-1.539 1.118l-3.902-2.836a1 1 0 0 0-1.176 0l-3.902 2.836c-.783.569-1.838-.197-1.539-1.118l1.491-4.588a1 1 0 0 0-.363-1.118l-3.903-2.835c-.783-.57-.38-1.81.588-1.81H8.69a1 1 0 0 0 .951-.691Z"/><path stroke="#edd501" d="M122.441 3.812a.5.5 0 0 1 .951 0l1.491 4.586a1.5 1.5 0 0 0 1.426 1.036h4.824a.5.5 0 0 1 .294.905l-3.903 2.836a1.5 1.5 0 0 0-.545 1.677l1.491 4.587a.5.5 0 0 1-.769.559l-3.902-2.835a1.5 1.5 0 0 0-1.764 0l-3.902 2.835a.5.5 0 0 1-.77-.559l1.491-4.587a1.5 1.5 0 0 0-.545-1.677l-3.902-2.835a.5.5 0 0 1 .294-.905h4.823a1.5 1.5 0 0 0 1.427-1.036Z"/><path fill="#edd501" d="M94.257 3.657C94.557 2.735 95.86 2.735 96.16 3.656l1.491 4.587a1 1 0 0 0 .951.691h4.823c.969 0 1.372 1.24.588 1.809l-3.902 2.835a1 1 0 0 0-.363 1.118l1.49 4.588c.3.92-.755 1.687-1.539 1.118l-3.902-2.836a1 1 0 0 0-1.176 0l-3.902 2.836c-.783.569-1.838-.197-1.538-1.118l1.49-4.588a1 1 0 0 0-.363-1.118l-3.903-2.835c-.783-.57-.38-1.81.588-1.81h4.823a1 1 0 0 0 .951-.691ZM66.549 3.657C66.849 2.735 68.152 2.735 68.45 3.656l1.49 4.587a1 1 0 0 0 .951.691h4.823c.97 0 1.373 1.24.589 1.809l-3.902 2.835a1 1 0 0 0-.363 1.118l1.49 4.588c.3.92-.755 1.687-1.539 1.118l-3.902-2.836a1 1 0 0 0-1.176 0l-3.902 2.836c-.784.569-1.838-.197-1.539-1.118l1.49-4.588a1 1 0 0 0-.363-1.118l-3.902-2.835c-.784-.57-.38-1.81.588-1.81h4.823a1 1 0 0 0 .951-.691ZM38.84 3.657C39.14 2.735 40.444 2.735 40.744 3.656l1.49 4.587a1 1 0 0 0 .951.691h4.824c.969 0 1.371 1.24.588 1.809l-3.903 2.835a1 1 0 0 0-.363 1.118l1.49 4.588c.3.92-.755 1.687-1.538 1.118l-3.902-2.836a1 1 0 0 0-1.175 0l-3.903 2.836c-.784.569-1.838-.197-1.54-1.118l1.491-4.588a1 1 0 0 0-.363-1.118l-3.902-2.835c-.784-.57-.381-1.81.588-1.81h4.823a1 1 0 0 0 .951-.691Z"/></svg>