<svg xmlns="http://www.w3.org/2000/svg" width="136" height="24" fill="none" viewBox="0 0 136 24"><path fill="#edd501" d="M11.049 2.927C11.349 2.006 12.652 2.006 12.95 2.927l1.519 4.674a1 1 0 0 0 .951.691h4.914c.969 0 1.371 1.24.588 1.809l-3.976 2.888a1 1 0 0 0-.363 1.118l1.518 4.674c.3.922-.755 1.688-1.538 1.118l-3.976-2.888a1 1 0 0 0-1.176 0l-3.976 2.888c-.783.57-1.838-.197-1.538-1.118l1.518-4.674a1 1 0 0 0-.363-1.118l-3.976-2.888c-.783-.57-.38-1.81.588-1.81h4.914A1 1 0 0 0 9.53 7.6ZM123.049 2.927C123.348 2.006 124.652 2.006 124.951 2.927l1.519 4.674a1 1 0 0 0 .951.691h4.914c.969 0 1.371 1.24.588 1.809l-3.976 2.888a1 1 0 0 0-.363 1.118l1.518 4.674c.3.922-.755 1.688-1.538 1.118l-3.976-2.888a1 1 0 0 0-1.176 0l-3.976 2.888c-.783.57-1.838-.197-1.538-1.118l1.518-4.674a1 1 0 0 0-.363-1.118l-3.976-2.888c-.783-.57-.381-1.81.588-1.81h4.914a1 1 0 0 0 .951-.691ZM95.049 2.927C95.349 2.006 96.652 2.006 96.95 2.927l1.519 4.674a1 1 0 0 0 .951.691h4.914c.969 0 1.371 1.24.588 1.809l-3.976 2.888a1 1 0 0 0-.363 1.118l1.518 4.674c.3.922-.755 1.688-1.538 1.118l-3.976-2.888a1 1 0 0 0-1.176 0l-3.976 2.888c-.783.57-1.838-.197-1.538-1.118l1.518-4.674a1 1 0 0 0-.363-1.118l-3.976-2.888c-.784-.57-.38-1.81.588-1.81h4.914a1 1 0 0 0 .951-.691ZM67.049 2.927C67.349 2.006 68.652 2.006 68.95 2.927l1.519 4.674a1 1 0 0 0 .951.691h4.914c.969 0 1.372 1.24.588 1.809l-3.976 2.888a1 1 0 0 0-.363 1.118l1.518 4.674c.3.922-.755 1.688-1.538 1.118l-3.976-2.888a1 1 0 0 0-1.176 0l-3.976 2.888c-.783.57-1.838-.197-1.538-1.118l1.518-4.674a1 1 0 0 0-.363-1.118l-3.976-2.888c-.783-.57-.38-1.81.588-1.81h4.914a1 1 0 0 0 .951-.691ZM39.049 2.927C39.349 2.006 40.652 2.006 40.95 2.927l1.519 4.674a1 1 0 0 0 .951.691h4.914c.969 0 1.371 1.24.588 1.809l-3.976 2.888a1 1 0 0 0-.363 1.118l1.518 4.674c.3.922-.755 1.688-1.538 1.118l-3.976-2.888a1 1 0 0 0-1.176 0l-3.975 2.888c-.784.57-1.839-.197-1.54-1.118l1.52-4.674a1 1 0 0 0-.363-1.118l-3.977-2.888c-.784-.57-.38-1.81.588-1.81h4.914a1 1 0 0 0 .951-.691Z"/></svg>