<svg width="135" height="25" viewBox="0 0 135 25" fill="none" xmlns="http://www.w3.org/2000/svg">
<path d="M11.1323 3.65655C11.4317 2.73523 12.7351 2.73523 13.0344 3.65654L14.525 8.24393C14.6588 8.65595 15.0428 8.93492 15.476 8.93492H20.2995C21.2682 8.93492 21.671 10.1745 20.8873 10.7439L16.985 13.5791C16.6345 13.8337 16.4879 14.2851 16.6217 14.6971L18.1123 19.2845C18.4116 20.2058 17.3571 20.972 16.5734 20.4026L12.6712 17.5674C12.3207 17.3127 11.8461 17.3127 11.4956 17.5674L7.59332 20.4026C6.80961 20.972 5.75513 20.2058 6.05448 19.2845L7.54501 14.6971C7.67889 14.2851 7.53223 13.8337 7.18174 13.5791L3.27948 10.7439C2.49576 10.1745 2.89854 8.93492 3.86726 8.93492H8.69073C9.12395 8.93492 9.50791 8.65596 9.64178 8.24393L11.1323 3.65655Z" fill="#EDD501"/>
<path d="M122.441 3.81152C122.591 3.35087 123.243 3.35087 123.392 3.81152L124.883 8.39844C125.083 9.01645 125.66 9.43454 126.309 9.43457H131.133C131.617 9.43457 131.818 10.0551 131.427 10.3398L127.524 13.1748C126.999 13.5568 126.779 14.2337 126.979 14.8516L128.47 19.4395C128.62 19.8998 128.093 20.2824 127.701 19.998L123.799 17.1631C123.273 16.7811 122.561 16.7811 122.035 17.1631L118.133 19.998C117.741 20.2824 117.214 19.8998 117.363 19.4395L118.854 14.8516C119.055 14.2337 118.835 13.5568 118.309 13.1748L114.407 10.3398C114.015 10.0551 114.217 9.43457 114.701 9.43457H119.524C120.174 9.43454 120.75 9.01645 120.951 8.39844L122.441 3.81152Z" stroke="#EDD501"/>
<path d="M94.2573 3.65655C94.5567 2.73523 95.8601 2.73523 96.1594 3.65654L97.65 8.24393C97.7838 8.65595 98.1678 8.93492 98.601 8.93492H103.424C104.393 8.93492 104.796 10.1745 104.012 10.7439L100.11 13.5791C99.7595 13.8337 99.6129 14.2851 99.7467 14.6971L101.237 19.2845C101.537 20.2058 100.482 20.972 99.6984 20.4026L95.7962 17.5674C95.4457 17.3127 94.9711 17.3127 94.6206 17.5674L90.7183 20.4026C89.9346 20.972 88.8801 20.2058 89.1795 19.2845L90.67 14.6971C90.8039 14.2851 90.6572 13.8337 90.3067 13.5791L86.4045 10.7439C85.6208 10.1745 86.0235 8.93492 86.9923 8.93492H91.8157C92.249 8.93492 92.6329 8.65596 92.7668 8.24393L94.2573 3.65655Z" fill="#EDD501"/>
<path d="M66.5489 3.65655C66.8483 2.73523 68.1517 2.73523 68.4511 3.65654L69.9416 8.24393C70.0755 8.65595 70.4594 8.93492 70.8926 8.93492H75.7161C76.6848 8.93492 77.0876 10.1745 76.3039 10.7439L72.4016 13.5791C72.0511 13.8337 71.9045 14.2851 72.0384 14.6971L73.5289 19.2845C73.8282 20.2058 72.7738 20.972 71.9901 20.4026L68.0878 17.5674C67.7373 17.3127 67.2627 17.3127 66.9122 17.5674L63.01 20.4026C62.2262 20.972 61.1718 20.2058 61.4711 19.2845L62.9616 14.6971C63.0955 14.2851 62.9489 13.8337 62.5984 13.5791L58.6961 10.7439C57.9124 10.1745 58.3152 8.93492 59.2839 8.93492H64.1074C64.5406 8.93492 64.9245 8.65596 65.0584 8.24393L66.5489 3.65655Z" fill="#EDD501"/>
<path d="M38.8407 3.65655C39.14 2.73523 40.4435 2.73523 40.7428 3.65654L42.2333 8.24393C42.3672 8.65595 42.7512 8.93492 43.1844 8.93492H48.0079C48.9766 8.93492 49.3794 10.1745 48.5956 10.7439L44.6934 13.5791C44.3429 13.8337 44.1962 14.2851 44.3301 14.6971L45.8206 19.2845C46.12 20.2058 45.0655 20.972 44.2818 20.4026L40.3795 17.5674C40.029 17.3127 39.5545 17.3127 39.204 17.5674L35.3017 20.4026C34.518 20.972 33.4635 20.2058 33.7629 19.2845L35.2534 14.6971C35.3873 14.2851 35.2406 13.8337 34.8901 13.5791L30.9879 10.7439C30.2041 10.1745 30.6069 8.93492 31.5756 8.93492H36.3991C36.8323 8.93492 37.2163 8.65596 37.3502 8.24393L38.8407 3.65655Z" fill="#EDD501"/>
</svg>
