<svg width="50" height="78" viewBox="0 0 50 78" fill="none" xmlns="http://www.w3.org/2000/svg">
<path d="M39 78C17.4609 78 -2.64625e-06 60.5391 -1.70474e-06 39C-7.6324e-07 17.4609 17.4609 -2.64625e-06 39 -1.70474e-06C60.5391 -7.6324e-07 78 17.4609 78 39C78 60.5391 60.5391 78 39 78ZM39 10.5249C23.2736 10.5249 10.5249 23.2736 10.5249 39C10.5249 54.7264 23.2736 67.4751 39 67.4751C54.7264 67.4751 67.4751 54.7264 67.4751 39C67.4751 23.2736 54.7264 10.5249 39 10.5249Z" fill="#D68362" fill-opacity="0.17"/>
</svg>
