<svg width="15" height="16" viewBox="0 0 15 16" fill="none" xmlns="http://www.w3.org/2000/svg">
<path d="M7.5 16C3.35786 16 4.10854e-07 12.4183 6.03983e-07 8C7.97112e-07 3.58172 3.35787 -5.08894e-07 7.5 -3.27835e-07C11.6421 -1.46777e-07 15 3.58172 15 8C15 12.4183 11.6421 16 7.5 16ZM7.5 2.08484C4.43733 2.08484 1.95454 4.73315 1.95454 8C1.95454 11.2669 4.43733 13.9152 7.5 13.9152C10.5627 13.9152 13.0455 11.2669 13.0455 8C13.0455 4.73315 10.5627 2.08484 7.5 2.08484Z" fill="#3C322D" fill-opacity="0.12"/>
</svg>
